$MeshFormat
4.1 0 8
$EndMeshFormat
$PhysicalNames
1
1 1 "Segment"
$EndPhysicalNames
$Entities
2 1 0 0
1 0 0 -1 0 
2 0 0 1 0 
1 0 0 -1 0 0 1 1 1 2 1 -2 
$EndEntities
$Nodes
3 11 1 11
0 1 0 1
1
0 0 -1
0 2 0 1
2
0 0 1
1 1 0 9
3
4
5
6
7
8
9
10
11
0 0 -0.8000000000005545
0 0 -0.6000000000011093
0 0 -0.4000000000016637
0 0 -0.2000000000022178
0 0 -2.750244476601438e-12
0 0 0.1999999999977826
0 0 0.3999999999983368
0 0 0.5999999999988912
0 0 0.7999999999994456
$EndNodes
$Elements
1 10 1 10
1 1 1 10
1 1 3 
2 3 4 
3 4 5 
4 5 6 
5 6 7 
6 7 8 
7 8 9 
8 9 10 
9 10 11 
10 11 2 
$EndElements
