$MeshFormat
4.1 0 8
$EndMeshFormat
$PhysicalNames
1
1 1 "Segment"
$EndPhysicalNames
$Entities
2 1 0 0
1 0 0 -2 0 
2 0 0 2 0 
1 0 0 -2 0 0 2 1 1 2 1 -2 
$EndEntities
$Nodes
3 15 1 15
0 1 0 1
1
0 0 -2
0 2 0 1
2
0 0 2
1 1 0 13
3
4
5
6
7
8
9
10
11
12
13
14
15
0 0 -1.714285714286506
0 0 -1.428571428573013
0 0 -1.14285714285952
0 0 -0.8571428571460262
0 0 -0.5714285714325322
0 0 -0.2857142857190378
0 0 -5.500488953202876e-12
0 0 0.2857142857095343
0 0 0.5714285714246121
0 0 0.8571428571396895
0 0 1.142857142854767
0 0 1.428571428569845
0 0 1.714285714284922
$EndNodes
$Elements
1 14 1 14
1 1 1 14
1 1 3 
2 3 4 
3 4 5 
4 5 6 
5 6 7 
6 7 8 
7 8 9 
8 9 10 
9 10 11 
10 11 12 
11 12 13 
12 13 14 
13 14 15 
14 15 2 
$EndElements
