$MeshFormat
4.1 0 8
$EndMeshFormat
$PhysicalNames
1
1 1 "Segment"
$EndPhysicalNames
$Entities
2 1 0 0
1 0 0 -2 0 
2 0 0 2 0 
1 0 0 -2 0 0 2 1 1 2 1 -2 
$EndEntities
$Nodes
3 51 1 51
0 1 0 1
1
0 0 -2
0 2 0 1
2
0 0 2
1 1 0 49
3
4
5
6
7
8
9
10
11
12
13
14
15
16
17
18
19
20
21
22
23
24
25
26
27
28
29
30
31
32
33
34
35
36
37
38
39
40
41
42
43
44
45
46
47
48
49
50
51
0 0 -1.920000000000222
0 0 -1.840000000000444
0 0 -1.760000000000665
0 0 -1.680000000000887
0 0 -1.600000000001109
0 0 -1.520000000001331
0 0 -1.440000000001553
0 0 -1.360000000001775
0 0 -1.280000000001997
0 0 -1.200000000002219
0 0 -1.120000000002441
0 0 -1.040000000002662
0 0 -0.9600000000028841
0 0 -0.8800000000031061
0 0 -0.8000000000033276
0 0 -0.7200000000035491
0 0 -0.6400000000037709
0 0 -0.5600000000039924
0 0 -0.4800000000042144
0 0 -0.4000000000044359
0 0 -0.3200000000046574
0 0 -0.2400000000048792
0 0 -0.1600000000051007
0 0 -0.08000000000532248
0 0 -5.500488953202876e-12
0 0 0.07999999999467811
0 0 0.1599999999948993
0 0 0.2399999999951214
0 0 0.3199999999953431
0 0 0.3999999999955648
0 0 0.4799999999957865
0 0 0.5599999999960081
0 0 0.6399999999962303
0 0 0.7199999999964519
0 0 0.7999999999966736
0 0 0.8799999999968953
0 0 0.9599999999971169
0 0 1.039999999997339
0 0 1.11999999999756
0 0 1.199999999997782
0 0 1.279999999998004
0 0 1.359999999998225
0 0 1.439999999998447
0 0 1.519999999998669
0 0 1.599999999998891
0 0 1.679999999999112
0 0 1.759999999999334
0 0 1.839999999999556
0 0 1.919999999999777
$EndNodes
$Elements
1 50 1 50
1 1 1 50
1 1 3 
2 3 4 
3 4 5 
4 5 6 
5 6 7 
6 7 8 
7 8 9 
8 9 10 
9 10 11 
10 11 12 
11 12 13 
12 13 14 
13 14 15 
14 15 16 
15 16 17 
16 17 18 
17 18 19 
18 19 20 
19 20 21 
20 21 22 
21 22 23 
22 23 24 
23 24 25 
24 25 26 
25 26 27 
26 27 28 
27 28 29 
28 29 30 
29 30 31 
30 31 32 
31 32 33 
32 33 34 
33 34 35 
34 35 36 
35 36 37 
36 37 38 
37 38 39 
38 39 40 
39 40 41 
40 41 42 
41 42 43 
42 43 44 
43 44 45 
44 45 46 
45 46 47 
46 47 48 
47 48 49 
48 49 50 
49 50 51 
50 51 2 
$EndElements
