$MeshFormat
4.1 0 8
$EndMeshFormat
$PhysicalNames
2
1 1 "Wire1"
1 2 "Wire2"
$EndPhysicalNames
$Entities
8 6 0 0
1 0 0 0 0 
2 0 0 0.5 0 
3 0 0 1 0 
4 1 0 1 0 
5 1 0 0.5 0 
6 1 0 0 0 
7 1.5 0 0 0 
8 2 0 0 0 
1 0 0 0 0 0 0.5 1 1 2 1 -2 
2 0 0 0.5 0 0 1 1 1 2 2 -3 
3 1 0 0.5 1 0 1 1 2 2 4 -5 
4 1 0 0 1 0 0.5 1 2 2 5 -6 
5 1 0 0 1.5 0 0 1 2 2 6 -7 
6 1.5 0 0 2 0 0 1 2 2 7 -8 
$EndEntities
$Nodes
14 8 1 8
0 1 0 1
1
0 0 0
0 2 0 1
2
0 0 0.5
0 3 0 1
3
0 0 1
0 4 0 1
4
1 0 1
0 5 0 1
5
1 0 0.5
0 6 0 1
6
1 0 0
0 7 0 1
7
1.5 0 0
0 8 0 1
8
2 0 0
1 1 0 0
1 2 0 0
1 3 0 0
1 4 0 0
1 5 0 0
1 6 0 0
$EndNodes
$Elements
6 6 1 6
1 1 1 1
1 1 2 
1 2 1 1
2 2 3 
1 3 1 1
3 4 5 
1 4 1 1
4 5 6 
1 5 1 1
5 6 7 
1 6 1 1
6 7 8 
$EndElements
