$MeshFormat
4.1 0 8
$EndMeshFormat
$Entities
4 2 0 0
1 0 0 0 0 
2 0 0 1 0 
3 0.7071067811865476 0.7071067811865475 0 0 
4 0.7071067811865476 0.7071067811865475 1 0 
1 0 0 0 0 0 1 0 2 1 -2 
2 0.7071067811865476 0.7071067811865475 0 0.7071067811865476 0.7071067811865475 1 0 2 3 -4 
$EndEntities
$Nodes
6 6 1 6
0 1 0 1
1
0 0 0
0 2 0 1
2
0 0 1
0 3 0 1
3
0.7071067811865476 0.7071067811865475 0
0 4 0 1
4
0.7071067811865476 0.7071067811865475 1
1 1 0 1
5
0 0 0.4999999999986921
1 2 0 1
6
0.7071067811865476 0.7071067811865475 0.4999999999986921
$EndNodes
$Elements
6 8 1 8
0 1 15 1
1 1 
0 2 15 1
2 2 
0 3 15 1
3 3 
0 4 15 1
4 4 
1 1 1 2
5 1 5 
6 5 2 
1 2 1 2
7 3 6 
8 6 4 
$EndElements
