$MeshFormat
4.1 0 8
$EndMeshFormat
$PhysicalNames
1
1 1 "Segment"
$EndPhysicalNames
$Entities
2 1 0 0
1 0 0 -2 0 
2 0 0 2 0 
1 0 0 -2 0 0 2 1 1 2 1 -2 
$EndEntities
$Nodes
3 21 1 21
0 1 0 1
1
0 0 -2
0 2 0 1
2
0 0 2
1 1 0 19
3
4
5
6
7
8
9
10
11
12
13
14
15
16
17
18
19
20
21
0 0 -1.800000000000554
0 0 -1.600000000001109
0 0 -1.400000000001664
0 0 -1.200000000002219
0 0 -1.000000000002773
0 0 -0.8000000000033274
0 0 -0.6000000000038817
0 0 -0.4000000000044357
0 0 -0.2000000000049897
0 0 -5.500488953202876e-12
0 0 0.1999999999950108
0 0 0.3999999999955652
0 0 0.5999999999961196
0 0 0.7999999999966736
0 0 0.999999999997228
0 0 1.199999999997782
0 0 1.399999999998337
0 0 1.599999999998891
0 0 1.799999999999445
$EndNodes
$Elements
1 20 1 20
1 1 1 20
1 1 3 
2 3 4 
3 4 5 
4 5 6 
5 6 7 
6 7 8 
7 8 9 
8 9 10 
9 10 11 
10 11 12 
11 12 13 
12 13 14 
13 14 15 
14 15 16 
15 16 17 
16 17 18 
17 18 19 
18 19 20 
19 20 21 
20 21 2 
$EndElements
