$MeshFormat
4.1 0 8
$EndMeshFormat
$PhysicalNames
1
1 1 "Segment"
$EndPhysicalNames
$Entities
2 1 0 0
1 0 0 -2 0 
2 0 0 2 0 
1 0 0 -2 0 0 2 1 1 2 1 -2 
$EndEntities
$Nodes
3 31 1 31
0 1 0 1
1
0 0 -2
0 2 0 1
2
0 0 2
1 1 0 29
3
4
5
6
7
8
9
10
11
12
13
14
15
16
17
18
19
20
21
22
23
24
25
26
27
28
29
30
31
0 0 -1.866666666667036
0 0 -1.733333333334073
0 0 -1.600000000001109
0 0 -1.466666666668146
0 0 -1.333333333335182
0 0 -1.200000000002219
0 0 -1.066666666669255
0 0 -0.9333333333362914
0 0 -0.8000000000033276
0 0 -0.6666666666703636
0 0 -0.5333333333373997
0 0 -0.4000000000044359
0 0 -0.2666666666714719
0 0 -0.1333333333385081
0 0 -5.500488953202876e-12
0 0 0.1333333333281592
0 0 0.266666666661862
0 0 0.3999999999955648
0 0 0.533333333329268
0 0 0.6666666666629708
0 0 0.7999999999966736
0 0 0.9333333333303764
0 0 1.066666666664079
0 0 1.199999999997782
0 0 1.333333333331485
0 0 1.466666666665188
0 0 1.599999999998891
0 0 1.733333333332594
0 0 1.866666666666296
$EndNodes
$Elements
1 30 1 30
1 1 1 30
1 1 3 
2 3 4 
3 4 5 
4 5 6 
5 6 7 
6 7 8 
7 8 9 
8 9 10 
9 10 11 
10 11 12 
11 12 13 
12 13 14 
13 14 15 
14 15 16 
15 16 17 
16 17 18 
17 18 19 
18 19 20 
19 20 21 
20 21 22 
21 22 23 
22 23 24 
23 24 25 
24 25 26 
25 26 27 
26 27 28 
27 28 29 
28 29 30 
29 30 31 
30 31 2 
$EndElements
