$MeshFormat
4.1 0 8
$EndMeshFormat
$PhysicalNames
2
1 2 "The wire"
2 1 "The surface"
$EndPhysicalNames
$Entities
6 5 1 0
1 0 0 0 0 
2 0.1 0 0 0 
3 0.1 0.3 0 0 
4 0 0.3 0 0 
5 0.05 0.15 0 0 
6 0.05 0.15 0.5 0 
1 0 0 0 0.1 0 0 0 2 1 -2 
2 0.1 0 0 0.1 0.3 0 0 2 3 -2 
3 0 0.3 0 0.1 0.3 0 0 2 3 -4 
4 0 0 0 0 0.3 0 0 2 4 -1 
5 0.05 0.15 0 0.05 0.15 0.5 1 2 2 5 -6 
1 0 0 0 0.1 0.3 0 1 1 4 4 1 -2 3 
$EndEntities
$Nodes
12 37 1 37
0 1 0 1
1
0 0 0
0 2 0 1
2
0.1 0 0
0 3 0 1
3
0.1 0.3 0
0 4 0 1
4
0 0.3 0
0 5 0 1
5
0.05 0.15 0
0 6 0 1
6
0.05 0.15 0.5
1 1 0 1
7
0.04999999999986842 0 0
1 2 0 5
8
9
10
11
12
0.1 0.2500000000001119 0
0.1 0.2000000000002564 0
0.1 0.1500000000003847 0
0.1 0.1000000000002544 0
0.1 0.05000000000012816 0
1 3 0 1
13
0.05000000000013695 0.3 0
1 4 0 5
14
15
16
17
18
0 0.2500000000001119 0
0 0.2000000000002564 0
0 0.1500000000003847 0
0 0.1000000000002544 0
0 0.05000000000012816 0
1 5 0 9
19
20
21
22
23
24
25
26
27
0.05 0.15 0.04999999999990733
0.05 0.15 0.09999999999977893
0.05 0.15 0.1499999999996332
0.05 0.15 0.1999999999994874
0.05 0.15 0.2499999999993471
0.05 0.15 0.2999999999994734
0.05 0.15 0.349999999999605
0.05 0.15 0.3999999999997367
0.05 0.15 0.4499999999998684
2 1 0 10
28
29
30
31
32
33
34
35
36
37
0.04527887070698004 0.2250000000001518 0
0.05472112929289569 0.07500000000015219 0
0.06359840020148337 0.1828725833080989 0
0.06359840020155152 0.267127416692106 0
0.03640159979846477 0.03287258330800692 0
0.03640159979843771 0.1171274166921961 0
0.029685765731657 0.1795832465889 0
0.02968576573174963 0.2704167534112684 0
0.07031423426828932 0.02958324658880341 0
0.07031423426822289 0.1204167534113048 0
$EndNodes
$Elements
2 46 1 46
1 5 1 10
1 5 19 
2 19 20 
3 20 21 
4 21 22 
5 22 23 
6 23 24 
7 24 25 
8 25 26 
9 26 27 
10 27 6 
2 1 2 36
11 9 8 28 
12 17 18 29 
13 28 8 31 
14 9 28 30 
15 17 29 33 
16 29 18 32 
17 12 11 29 
18 14 15 28 
19 1 7 32 
20 18 1 32 
21 5 16 33 
22 16 17 33 
23 8 3 31 
24 3 13 31 
25 10 9 30 
26 5 10 30 
27 28 15 34 
28 12 29 36 
29 14 28 35 
30 29 11 37 
31 30 28 34 
32 29 32 36 
33 28 31 35 
34 33 29 37 
35 13 4 35 
36 11 10 37 
37 7 2 36 
38 10 5 37 
39 4 14 35 
40 16 5 34 
41 2 12 36 
42 15 16 34 
43 5 30 34 
44 32 7 36 
45 31 13 35 
46 5 33 37 
$EndElements
