$MeshFormat
4.1 0 8
$EndMeshFormat
$PhysicalNames
2
1 1 "Wires"
1 2 "Connectors"
$EndPhysicalNames
$Entities
4 4 0 0
1 0 0 0 0 
2 1 0 0 0 
3 1 0.1 0 0 
4 0 0.1 0 0 
1 0 0 0 1 0 0 1 1 2 1 -2 
2 1 0 0 1 0.1 0 1 2 2 2 -3 
3 0 0.1 0 1 0.1 0 1 1 2 3 -4 
4 0 0 0 0 0.1 0 1 2 2 4 -1 
$EndEntities
$Nodes
8 42 1 42
0 1 0 1
1
0 0 0
0 2 0 1
2
1 0 0
0 3 0 1
3
1 0.1 0
0 4 0 1
4
0 0.1 0
1 1 0 19
5
6
7
8
9
10
11
12
13
14
15
16
17
18
19
20
21
22
23
0.0499999999998994 0 0
0.09999999999981414 0 0
0.1499999999997029 0 0
0.1999999999995569 0 0
0.2499999999994109 0 0
0.299999999999265 0 0
0.3499999999991191 0 0
0.3999999999989731 0 0
0.4499999999988272 0 0
0.4999999999986921 0 0
0.5499999999988131 0 0
0.599999999998945 0 0
0.6499999999990769 0 0
0.6999999999992088 0 0
0.7499999999993406 0 0
0.7999999999994725 0 0
0.8499999999996044 0 0
0.8999999999997362 0 0
0.9499999999998682 0 0
1 2 0 0
1 3 0 19
24
25
26
27
28
29
30
31
32
33
34
35
36
37
38
39
40
41
42
0.9499999999997918 0.1 0
0.8999999999995836 0.1 0
0.849999999999653 0.1 0
0.8 0.1 0
0.7500000000003471 0.1 0
0.7000000000006938 0.1 0
0.6500000000010406 0.1 0
0.6000000000013874 0.1 0
0.5500000000017343 0.1 0
0.5000000000020595 0.1 0
0.450000000001873 0.1 0
0.400000000001665 0.1 0
0.3500000000014568 0.1 0
0.3000000000012487 0.1 0
0.2500000000010406 0.1 0
0.2000000000008325 0.1 0
0.1500000000006244 0.1 0
0.1000000000004162 0.1 0
0.0500000000002081 0.1 0
1 4 0 0
$EndNodes
$Elements
4 42 1 42
1 1 1 20
1 1 5 
2 5 6 
3 6 7 
4 7 8 
5 8 9 
6 9 10 
7 10 11 
8 11 12 
9 12 13 
10 13 14 
11 14 15 
12 15 16 
13 16 17 
14 17 18 
15 18 19 
16 19 20 
17 20 21 
18 21 22 
19 22 23 
20 23 2 
1 2 1 1
21 2 3 
1 3 1 20
22 3 24 
23 24 25 
24 25 26 
25 26 27 
26 27 28 
27 28 29 
28 29 30 
29 30 31 
30 31 32 
31 32 33 
32 33 34 
33 34 35 
34 35 36 
35 36 37 
36 37 38 
37 38 39 
38 39 40 
39 40 41 
40 41 42 
41 42 4 
1 4 1 1
42 4 1 
$EndElements
